# xmcd
#
# Track frame offsets:
#	150
#	21654
#	39951
#	61508
#	81008
#	98024
#	121061
#	138386
#	159536
#	170636
#	192566
#	224726
#
# Disc length: 3246 seconds
#
# Revision: 1
# Processed by: cddbd v1.5.2PL0 Copyright (c) Steve Scherf et al.
# Submitted via: audiograbber 1.83.01
#
DISCID=a30cac0c
DTITLE=HORSE The Band - Desperate Living
DYEAR=2009
DGENRE=Metal
TTITLE0=Cloudwalker
TTITLE1=Desperate Living
TTITLE2=The failure of all things
TTITLE3=HORSE the song
TTITLE4=Science Police
TTITLE5=Shapeshift
TTITLE6=Between the trees
TTITLE7=Golden mummy golden bird
TTITLE8=Lord Gold wand of unyielding
TTITLE9=Big Business
TTITLE10=Rape escape
TTITLE11=Arrive
EXTD=
EXTT0=
EXTT1=
EXTT2=
EXTT3=
EXTT4=
EXTT5=
EXTT6=
EXTT7=
EXTT8=
EXTT9=
EXTT10=
EXTT11=
PLAYORDER=
